<?xml version="1.0" encoding="UTF-8" standalone="no"?>
<svg
   width="18"
   height="18"
   clip-rule="evenodd"
   fill-rule="evenodd"
   stroke-linejoin="round"
   stroke-miterlimit="2"
   version="1.1"
   viewBox="0 0 18 18"
   xml:space="preserve"
   id="svg4"
   xmlns="http://www.w3.org/2000/svg"
   xmlns:svg="http://www.w3.org/2000/svg"
   xmlns:rdf="http://www.w3.org/1999/02/22-rdf-syntax-ns#"
   xmlns:cc="http://creativecommons.org/ns#"
   xmlns:dc="http://purl.org/dc/elements/1.1/"><defs
   id="defs4" /><metadata
   id="metadata1"><rdf:RDF><cc:Work
       rdf:about=""><dc:format>image/svg+xml</dc:format><dc:type
         rdf:resource="http://purl.org/dc/dcmitype/StillImage" /></cc:Work></rdf:RDF></metadata>
    <rect
   width="18"
   height="18"
   fill-opacity="0"
   stroke-width=".75"
   id="rect1" /><g
   fill="#626262"
   stroke="#626262"
   stroke-linecap="round"
   stroke-linejoin="round"
   stroke-miterlimit="2"
   stroke-width="1.0645"
   id="g3">
    
<path
   d="m5.4677 4.5a0.96774 0.96774 0 0 1-0.96774 0.96774 0.96774 0.96774 0 0 1-0.96774-0.96774 0.96774 0.96774 0 0 1 0.96774-0.96774 0.96774 0.96774 0 0 1 0.96774 0.96774z"
   id="path1" /><path
   d="m8.4677 13.5a0.96774 0.96774 0 0 1-0.96774 0.96774 0.96774 0.96774 0 0 1-0.96774-0.96774 0.96774 0.96774 0 0 1 0.96774-0.96774 0.96774 0.96774 0 0 1 0.96774 0.96774z"
   id="path2" /><path
   d="m14.468 6.5a0.96774 0.96774 0 0 1-0.96774 0.96774 0.96774 0.96774 0 0 1-0.96774-0.96774 0.96774 0.96774 0 0 1 0.96774-0.96774 0.96774 0.96774 0 0 1 0.96774 0.96774z"
   id="path3" /></g><path
   d="m4.5 4.5c-0.36326 5.8545 0.74671 8.6243 3 9 1.8499-6.7953 3.9345-6.6147 6-7"
   fill="none"
   stroke="#626262"
   stroke-linejoin="miter"
   stroke-width="1px"
   id="path4" /><path
   style="fill:none;stroke:#626262;stroke-width:1;stroke-dasharray:none"
   d="m 11,11 1,4 1,-2 1,2 1,-4"
   id="path5" /></svg>
