<?xml version="1.0" encoding="UTF-8" standalone="no"?>
<svg
   width="24"
   height="24"
   style="-ms-transform:rotate(360deg);-webkit-transform:rotate(360deg);transform:rotate(360deg)"
   version="1.1"
   viewBox="0 0 24 24"
   id="svg13"
   xml:space="preserve"
   xmlns="http://www.w3.org/2000/svg"
   xmlns:svg="http://www.w3.org/2000/svg"
   xmlns:rdf="http://www.w3.org/1999/02/22-rdf-syntax-ns#"
   xmlns:cc="http://creativecommons.org/ns#"
   xmlns:dc="http://purl.org/dc/elements/1.1/"><defs
     id="defs13" /><metadata
     id="metadata1"><rdf:RDF><cc:Work
         rdf:about=""><dc:format>image/svg+xml</dc:format><dc:type
           rdf:resource="http://purl.org/dc/dcmitype/StillImage" /></cc:Work></rdf:RDF></metadata><g
     fill="#626262"
     id="g11"
     transform="matrix(1,0,0,0.46732625,-0.96150497,1.7634001)"><path
       id="rect1"
       d="m 2.5,7.5 h 1 V 21 h -1 z" /><path
       id="rect2"
       d="M 5,10 H 5.5 V 21 H 5 Z" /><path
       id="rect3"
       d="M 7.5,10 H 8 V 21 H 7.5 Z" /><path
       id="rect4"
       d="m 10,10 h 0.5 V 21 H 10 Z" /><path
       id="rect5"
       d="m 12.5,7.5 h 1 V 21 h -1 z" /><path
       id="rect6"
       d="m 15,10 h 0.5 V 21 H 15 Z" /><path
       id="rect7"
       d="m 15,10 h 0.5 V 21 H 15 Z" /><path
       id="rect8"
       d="m 15,10 h 0.5 V 21 H 15 Z" /><path
       id="rect9"
       d="M 17.5,10 H 18 v 11 h -0.5 z" /><path
       id="rect10"
       d="m 20,10 h 0.5 V 21 H 20 Z" /><path
       id="rect11"
       d="m 22.5,1 h 1 v 20 h -1 z" /></g><path
     d="m 14.038495,2.2307264 v 6 l 7,-3 z"
     fill="#626262"
     id="path12" /><rect
     x="1.5384951"
     y="4.2307262"
     width="15"
     height="2"
     ry="0.75221002"
     fill="#626262"
     id="rect13" /><g
     style="-ms-transform:rotate(360deg);-webkit-transform:rotate(360deg)"
     id="g14"
     transform="matrix(0.50062578,0,0,0.44444445,5.9974969,12.222222)"><path
       d="M 12,1.75 8.57,2.67 4.06,19.53 C 4.03,19.68 4,19.84 4,20 c 0,1.11 0.89,2 2,2 h 12 c 1.11,0 2,-0.89 2,-2 0,-0.16 -0.03,-0.32 -0.06,-0.47 L 18.58,14.42 17,16 17.2,17 H 13.41 L 16.25,14.16 14.84,12.75 10.59,17 H 6.8 L 10.29,4 h 3.42 L 15.17,9.43 16.8,7.79 15.43,2.67 12,1.75 M 11.25,5 v 9.75 l 1.5,-1.5 V 5 h -1.5 m 8.54,2.8 -2.83,2.83 -0.71,-0.71 -1.41,1.42 2.82,2.82 1.42,-1.41 -0.71,-0.71 2.83,-2.83 z"
       fill="#626262"
       id="path1" /></g></svg>
